<svg viewBox="-20 -10 40 20" xmlns="http://www.w3.org/2000/svg">
<path d="M 10.302635033073411,0.0 L 10.244268547249009,0.1439331420452988 L 10.06983040538226,0.28623546407845896 L 9.781297061322459,0.42529462392972184 L 9.381937713149878,0.5595350257527519 L 8.876277261855208,0.6874356721551511 L 8.270045042403286,0.807547397706675 L 7.570109908078605,0.9185092885626149 L 6.784402403632952,1.0190641021614506 L 5.921824909044487,1.1080725122854425 L 4.992150771995374,1.18452601808193 L 4.005913571937318,1.2475583707809674 L 2.9742877704273654,1.2964553886400252 L 1.9089621000133794,1.3306630489085025 L 0.822007126223687,1.3497937651268708 L -0.2742615167634993,1.353630778636129 L -1.3674226671764138,1.3421306145400245 L -2.445090372375845,1.3154235742929987 L -3.495054226647717,1.2738122593326422 L -4.505417719978864,1.2177681424844935 L -5.464733030269071,1.1479262259865353 L -6.362130731729804,1.0650778466601032 L -7.187442949821587,0.970161709747498 L -7.931318567335406,0.864253253006504 L -8.58532917628722,0.7485524615708684 L -9.14206457514822,0.6243702716392476 L -9.595216729389136,0.4931137170442522 L -9.939651244032005,0.3562699869969011 L -10.171465538396872,0.21538957563861197 L -10.288033063900292,0.07206871432302978 L -10.288033063900292,-0.07206871432302944 L -10.171465538396872,-0.21538957563861164 L -9.939651244032007,-0.3562699869969008 L -9.595216729389138,-0.4931137170442514 L -9.142064575148224,-0.6243702716392469 L -8.585329176287223,-0.7485524615708676 L -7.931318567335411,-0.8642532530065032 L -7.187442949821591,-0.9701617097474974 L -6.362130731729807,-1.065077846660103 L -5.464733030269073,-1.1479262259865353 L -4.505417719978866,-1.2177681424844935 L -3.4950542266477216,-1.273812259332642 L -2.4450903723758493,-1.3154235742929985 L -1.3674226671764182,-1.3421306145400245 L -0.27426151676350413,-1.3536307786361288 L 0.8220071262236823,-1.349793765126871 L 1.908962100013372,-1.330663048908503 L 2.9742877704273587,-1.2964553886400254 L 4.005913571937311,-1.2475583707809679 L 4.992150771995368,-1.1845260180819304 L 5.92182490904448,-1.1080725122854431 L 6.784402403632947,-1.0190641021614513 L 7.570109908078599,-0.9185092885626157 L 8.27004504240328,-0.8075473977066762 L 8.876277261855208,-0.6874356721551512 L 9.381937713149876,-0.559535025752752 L 9.781297061322459,-0.42529462392972206 L 10.069830405382259,-0.2862354640784591 L 10.244268547249009,-0.14393314204529906 L 10.302635033073411,-3.3166145718802186e-16 Z" fill="none" stroke="black" stroke-width="0.05" />
<line x1="0" y1="-5" x2="0" y2="5" stroke="red" stroke-width="0.02" />
</svg>