<svg viewBox="-20 -10 40 20" xmlns="http://www.w3.org/2000/svg">
<path d="M 8.184025256777037,0.0 L 8.137661118612112,0.11972197333613276 L 7.999094028328913,0.23808744887589384 L 7.769894006428949,0.3537552984849735 L 7.45265798074403,0.4654149592087733 L 7.050980362206248,0.5718012824743559 L 6.569412318735871,0.6717088687293045 L 6.013410208690244,0.7640057251003046 L 5.389273758143354,0.8476460913247199 L 4.70407468247217,0.9216822886322337 L 3.9655765609957045,0.985275457323988 L 3.1821468725191635,1.0377050613881647 L 2.362662188455606,1.0783770524609093 L 1.516407597724937,1.1068306006316653 L 0.6529715029863107,1.1227433158301965 L -0.21786301979532266,1.1259349006349055 L -1.0862290675090294,1.1163691931146622 L -1.942287705852746,1.0941545765579337 L -2.776339448390362,1.0595427514468183 L -3.5789341556087617,1.0129258835900081 L -4.340978108774584,0.9548321607274768 L -5.053837045401148,0.88591980795233 L -5.709433988892497,0.8069696297574895 L -6.300340763915626,0.7188761632087933 L -6.819862160595157,0.6226375424826015 L -7.262111793916493,0.5193441896067432 L -7.622078798820117,0.4101664595432317 L -7.895684605304954,0.29634137959889356 L -8.079829150256195,0.17915863341169316 L -8.172426002399117,0.05994594831978072 L -8.172426002399117,-0.05994594831978044 L -8.079829150256195,-0.17915863341169289 L -7.895684605304955,-0.2963413795988933 L -7.6220787988201195,-0.410166459543231 L -7.262111793916496,-0.5193441896067426 L -6.81986216059516,-0.6226375424826008 L -6.30034076391563,-0.7188761632087928 L -5.709433988892501,-0.806969629757489 L -5.05383704540115,-0.8859198079523299 L -4.340978108774586,-0.9548321607274766 L -3.5789341556087635,-1.0129258835900081 L -2.7763394483903654,-1.059542751446818 L -1.9422877058527495,-1.0941545765579335 L -1.0862290675090331,-1.116369193114662 L -0.2178630197953265,-1.1259349006349053 L 0.652971502986307,-1.1227433158301967 L 1.5164075977249314,-1.1068306006316655 L 2.3626621884556007,-1.0783770524609098 L 3.182146872519158,-1.0377050613881649 L 3.965576560995699,-0.9852754573239884 L 4.704074682472164,-0.9216822886322341 L 5.389273758143349,-0.8476460913247206 L 6.013410208690239,-0.7640057251003052 L 6.569412318735867,-0.6717088687293054 L 7.050980362206248,-0.571801282474356 L 7.452657980744029,-0.46541495920877335 L 7.769894006428949,-0.35375529848497367 L 7.999094028328912,-0.238087448875894 L 8.137661118612112,-0.11972197333613296 L 8.184025256777037,-2.7587228048971935e-16 Z" fill="none" stroke="black" stroke-width="0.05" />
<line x1="0" y1="-5" x2="0" y2="5" stroke="red" stroke-width="0.02" />
</svg>