<svg viewBox="-20 -10 40 20" xmlns="http://www.w3.org/2000/svg">
<path d="M 1.2756092737786182,0.0 L 1.2683826923888604,0.012738120574896308 L 1.2467848282743286,0.025331913153784313 L 1.2110603938655087,0.03763868503452103 L 1.1616141612790127,0.04951899557416119 L 1.0990063760877575,0.06083823610715942 L 1.0239464095147617,0.07146815511533784 L 0.9372847209737382,0.08128831136883367 L 0.8400032220241104,0.09018743857335945 L 0.7332041509206924,0.09806470606177708 L 0.6180975838138293,0.10483086124584645 L 0.4959877241030927,0.11040924088371358 L 0.36825812529162927,0.11473663970507404 L 0.23635601477213092,0.117764026552141 L 0.10177589616219251,0.11945709992225476 L -0.033957384018847916,0.11979667661761416 L -0.16930591347027263,0.11877890909857279 L -0.3027361392708687,0.11641532907780067 L -0.4327362436463022,0.11273271686137182 L -0.5578332734685939,0.10777279791719552 L -0.6766098294036198,0.10159177010879238 L -0.7877201256119326,0.09425966695104498 L -0.8899052380400705,0.08585956410249038 L -0.9820073685331233,0.07648663808491347 L -1.062982963150461,0.06624708789532464 L -1.131914536048863,0.05525693172888857 L -1.1880210649637315,0.04364069244641456 L -1.2306668405034298,0.03152998668058671 L -1.2593686689907055,0.019062033566924427 L -1.2738013472401293,0.006378099996146749 L -1.2738013472401293,-0.006378099996146719 L -1.2593686689907055,-0.0190620335669244 L -1.23066684050343,-0.03152998668058668 L -1.188021064963732,-0.043640692446414484 L -1.1319145360488634,-0.05525693172888849 L -1.0629829631504615,-0.06624708789532457 L -0.9820073685331239,-0.0764866380849134 L -0.889905238040071,-0.08585956410249031 L -0.7877201256119328,-0.09425966695104497 L -0.67660982940362,-0.10159177010879236 L -0.5578332734685942,-0.1077727979171955 L -0.43273624364630275,-0.1127327168613718 L -0.30273613927086923,-0.11641532907780065 L -0.16930591347027318,-0.11877890909857278 L -0.03395738401884851,-0.11979667661761415 L 0.10177589616219193,-0.11945709992225477 L 0.23635601477213003,-0.11776402655214101 L 0.3682581252916284,-0.11473663970507407 L 0.4959877241030919,-0.11040924088371361 L 0.6180975838138285,-0.1048308612458465 L 0.7332041509206915,-0.09806470606177714 L 0.8400032220241096,-0.09018743857335951 L 0.9372847209737374,-0.08128831136883374 L 1.023946409514761,-0.07146815511533793 L 1.0990063760877575,-0.06083823610715943 L 1.1616141612790127,-0.049518995574161194 L 1.2110603938655087,-0.03763868503452105 L 1.2467848282743283,-0.02533191315378433 L 1.2683826923888604,-0.01273812057489633 L 1.2756092737786182,-2.9352125380388184e-17 Z" fill="none" stroke="black" stroke-width="0.05" />
<line x1="0" y1="-5" x2="0" y2="5" stroke="red" stroke-width="0.02" />
</svg>