<svg viewBox="-20 -10 40 20" xmlns="http://www.w3.org/2000/svg">
<path d="M 9.68737615385258,0.0 L 9.632495232501451,0.11196010927737775 L 9.46847429121628,0.22265166577965306 L 9.197171752801266,0.3308204899415533 L 8.821661583423648,0.43524098576325515 L 8.346198463348722,0.5347300273027856 L 7.776169579712365,0.6281603639656977 L 7.118033587538157,0.7144733927047329 L 6.379247430595233,0.7926911524153407 L 5.568181851245727,0.8619274046257697 L 4.694026546589029,0.9213976749330727 L 3.7666860455216393,0.9704281414115538 L 2.7966674864671113,1.0084632692844313 L 1.7949615672992836,1.0350721053548395 L 0.7729180163437023,1.0499531608777497 L -0.25788300457942,1.0529378275479189 L -1.2857621080158372,1.0439922878993617 L -2.2990730130039645,1.0232178984707525 L -3.2863345020917927,0.9908500413953428 L -4.236360508118284,0.9472554574273359 L -5.138386856824023,0.8929280906226014 L -5.982193229246736,0.8284834917551513 L -6.758218962018953,0.754651843880909 L -7.457671373504215,0.6722696890719191 L -8.072625388393394,0.5822704500604065 L -8.596113331974635,0.48567385418624265 L -9.022203876671998,0.3835743794787232 L -9.346069246356917,0.2771288537831641 L -9.564039916980825,0.16754334743917076 L -9.673646193748892,0.05605950802176683 L -9.673646193748892,-0.05605950802176657 L -9.564039916980825,-0.16754334743917051 L -9.346069246356917,-0.2771288537831639 L -9.022203876672,-0.3835743794787225 L -8.596113331974639,-0.485673854186242 L -8.072625388393396,-0.5822704500604058 L -7.457671373504219,-0.6722696890719185 L -6.758218962018957,-0.7546518438809083 L -5.982193229246738,-0.8284834917551511 L -5.138386856824026,-0.8929280906226013 L -4.2363605081182865,-0.9472554574273357 L -3.286334502091797,-0.9908500413953427 L -2.299073013003969,-1.0232178984707525 L -1.2857621080158417,-1.0439922878993615 L -0.25788300457942454,-1.0529378275479186 L 0.7729180163436978,-1.0499531608777497 L 1.794961567299277,-1.0350721053548397 L 2.7966674864671046,-1.0084632692844315 L 3.7666860455216327,-0.970428141411554 L 4.694026546589024,-0.921397674933073 L 5.568181851245721,-0.8619274046257701 L 6.379247430595227,-0.7926911524153414 L 7.118033587538152,-0.7144733927047334 L 7.776169579712359,-0.6281603639656986 L 8.346198463348722,-0.5347300273027857 L 8.821661583423646,-0.4352409857632552 L 9.197171752801266,-0.33082048994155344 L 9.468474291216278,-0.2226516657796532 L 9.632495232501451,-0.11196010927737796 L 9.68737615385258,-2.5798681569932505e-16 Z" fill="none" stroke="black" stroke-width="0.05" />
<line x1="0" y1="-5" x2="0" y2="5" stroke="red" stroke-width="0.02" />
</svg>