<svg viewBox="-20 -10 40 20" xmlns="http://www.w3.org/2000/svg">
<path d="M 5.017175197968491,0.0 L 4.988751898091254,0.07307677138256376 L 4.90380404580453,0.14532555374536682 L 4.763294134218163,0.21592773951508992 L 4.5688141967753415,0.28408337771576014 L 4.322567768877531,0.34902023773295265 L 4.027344920947894,0.4100025589952199 L 3.6864906458185396,0.46633938743536135 L 3.3038669586251395,0.5173924042760956 L 2.8838091386322637,0.5625831584368666 L 2.431076608787019,0.6013996206157237 L 1.9507990095552936,0.6334019847859094 L 1.448418078045573,0.6582276513738792 L 0.929625990953098,0.6755953356573585 L 0.4003008699234247,0.6853082548336411 L -0.1335598199145917,0.6872563576473741 L -0.6659072236251796,0.6814175713152554 L -1.1907096324090685,0.6678580516194885 L -1.702020825274334,0.6467314333363359 L -2.194047442096228,0.6182770894927136 L -2.6612146247022954,0.5828174191741492 L -3.0982291822430765,0.5407541946143172 L -3.500139565159476,0.49256400895509206 L -3.8623919682178114,0.4387928762558142 L -4.180881926942716,0.3800500449358209 L -4.452000822839706,0.31700109474641197 L -4.672676770484654,0.25036039548631567 L -4.840409423213108,0.18088301290642098 L -4.953298303047089,0.10935615351311215 L -5.010064333869968,0.036590245203997916 L -5.010064333869968,-0.03659024520399774 L -4.953298303047089,-0.10935615351311197 L -4.840409423213109,-0.18088301290642084 L -4.672676770484655,-0.2503603954863152 L -4.452000822839707,-0.3170010947464115 L -4.1808819269427175,-0.3800500449358205 L -3.8623919682178136,-0.4387928762558138 L -3.500139565159478,-0.4925640089550917 L -3.0982291822430774,-0.5407541946143171 L -2.6612146247022967,-0.5828174191741491 L -2.1940474420962293,-0.6182770894927135 L -1.7020208252743363,-0.6467314333363358 L -1.1907096324090707,-0.6678580516194884 L -0.6659072236251818,-0.6814175713152553 L -0.13355981991459406,-0.687256357647374 L 0.40030086992342234,-0.6853082548336412 L 0.9296259909530945,-0.6755953356573586 L 1.4484180780455698,-0.6582276513738793 L 1.9507990095552903,-0.6334019847859095 L 2.431076608787016,-0.6013996206157239 L 2.88380913863226,-0.5625831584368669 L 3.303866958625137,-0.5173924042760959 L 3.686490645818537,-0.46633938743536174 L 4.0273449209478915,-0.4100025589952205 L 4.322567768877531,-0.3490202377329527 L 4.568814196775341,-0.2840833777157602 L 4.763294134218163,-0.21592773951509003 L 4.903804045804529,-0.1453255537453669 L 4.988751898091254,-0.0730767713825639 L 5.017175197968491,-1.6838893488276117e-16 Z" fill="none" stroke="black" stroke-width="0.05" />
<line x1="0" y1="-5" x2="0" y2="5" stroke="red" stroke-width="0.02" />
</svg>