<svg viewBox="-20 -10 40 20" xmlns="http://www.w3.org/2000/svg">
<path d="M 6.4489023401661045,0.0 L 6.412368019983749,0.06176715619064312 L 6.303179007882724,0.12283446582074292 L 6.122572458999847,0.18251001187093152 L 5.872594717700679,0.24011764655932202 L 5.556078131680175,0.295004652366052 L 5.176608960331558,0.3465491375835965 L 4.738486740994397,0.3941670825983097 L 4.246675573478536,0.4373189570660091 L 3.7067478748297034,0.4755158330063617 L 3.1248212416177505,0.5083249245522662 L 2.507489135123054,0.5353744915866594 L 1.8617461747855928,0.5563580517065834 L 1.1949088863717845,0.571037852791274 L 0.5145328028140175,0.5792475668286909 L -0.17167314299650716,0.5808941744783549 L -0.855933963499774,0.5759590190176441 L -1.53049671018273,0.5644980177299167 L -2.18771831758386,0.5466410283393461 L -2.820152202278881,0.5225903776710186 L -3.420632635646437,0.49261856920715863 L -3.982355934436669,0.4570651955137888 L -4.498957549221042,0.41633309052126233 L -4.964584177280515,0.37088376525486777 L -5.373960082864218,0.32123217873050236 L -5.722446873383572,0.26794090326325454 L -6.006096054253739,0.21161375029828136 L -6.221693766914997,0.15288892898586415 L -6.366797203134419,0.092431815016721 L -6.439762282999247,0.030927411649559103 L -6.439762282999247,-0.030927411649558957 L -6.366797203134419,-0.09243181501672085 L -6.221693766914997,-0.152888928985864 L -6.0060960542537405,-0.211613750298281 L -5.722446873383574,-0.2679409032632542 L -5.37396008286422,-0.3212321787305021 L -4.964584177280519,-0.37088376525486744 L -4.4989575492210445,-0.416333090521262 L -3.9823559344366704,-0.45706519551378877 L -3.4206326356464385,-0.4926185692071586 L -2.8201522022788823,-0.5225903776710185 L -2.1877183175838626,-0.546641028339346 L -1.530496710182733,-0.5644980177299166 L -0.8559339634997769,-0.5759590190176441 L -0.17167314299651018,-0.5808941744783549 L 0.5145328028140145,-0.5792475668286909 L 1.19490888637178,-0.5710378527912742 L 1.8617461747855886,-0.5563580517065835 L 2.50748913512305,-0.5353744915866596 L 3.1248212416177465,-0.5083249245522663 L 3.7067478748296994,-0.47551583300636197 L 4.246675573478533,-0.4373189570660094 L 4.738486740994394,-0.39416708259830996 L 5.176608960331555,-0.346549137583597 L 5.556078131680175,-0.29500465236605206 L 5.872594717700678,-0.24011764655932205 L 6.122572458999847,-0.1825100118709316 L 6.303179007882723,-0.122834465820743 L 6.412368019983749,-0.061767156190643234 L 6.4489023401661045,-1.4232847791304058e-16 Z" fill="none" stroke="black" stroke-width="0.05" />
<line x1="0" y1="-5" x2="0" y2="5" stroke="red" stroke-width="0.02" />
</svg>