<svg viewBox="-20 -10 40 20" xmlns="http://www.w3.org/2000/svg">
<path d="M 10.907068219923561,0.0 L 10.84527749933603,0.14117348156048037 L 10.660605451128013,0.2807474111648195 L 10.355144483396913,0.41714036041968755 L 9.932355590963134,0.5488069427101698 L 9.39702914091582,0.6742553230476183 L 8.755230595839603,0.79206412115618 L 8.014231789699881,0.9008985162792782 L 7.18242853505832,0.9995253712321498 L 6.269245495161725,1.0868272043388876 L 5.2850293987415515,1.1618148509463495 L 4.240931807443039,1.2236386710549298 L 3.148782764175828,1.2715981760792532 L 2.020956754000752,1.305149965663748 L 0.8702324962694995,1.3239138846258074 L -0.2903518433717462,1.3276773302659097 L -1.4476463806088802,1.3163976612411554 L -2.5885385059035717,1.2902026807087226 L -3.7001014555988694,1.2493891882650265 L -4.769740777316709,1.1944196170876984 L -5.785337030135837,1.1259167943829038 L -6.735383102700143,1.044656884504227 L -7.609114593388322,0.951560594700406 L -8.39663177528549,0.8476827431343079 L -9.089011764044852,0.7342003073716601 L -9.678409617732756,0.612399088754934 L -10.15814722315549,0.4836591437603544 L -10.522788961550189,0.34943914740658155 L -10.768203296317399,0.21125986588389395 L -10.89160958498161,0.07068692566558256 L -10.89160958498161,-0.07068692566558223 L -10.768203296317399,-0.21125986588389362 L -10.52278896155019,-0.3494391474065813 L -10.158147223155492,-0.48365914376035357 L -9.67840961773276,-0.6123990887549331 L -9.089011764044855,-0.7342003073716594 L -8.396631775285494,-0.8476827431343071 L -7.609114593388328,-0.9515605947004053 L -6.735383102700145,-1.044656884504227 L -5.78533703013584,-1.1259167943829038 L -4.769740777316712,-1.1944196170876984 L -3.7001014555988743,-1.2493891882650263 L -2.5885385059035766,-1.2902026807087223 L -1.447646380608885,-1.3163976612411552 L -0.2903518433717513,-1.3276773302659095 L 0.8702324962694945,-1.3239138846258076 L 2.0209567540007445,-1.3051499656637484 L 3.148782764175821,-1.2715981760792534 L 4.240931807443031,-1.22363867105493 L 5.285029398741544,-1.16181485094635 L 6.269245495161718,-1.0868272043388882 L 7.182428535058314,-0.9995253712321506 L 8.014231789699876,-0.9008985162792789 L 8.755230595839596,-0.792064121156181 L 9.39702914091582,-0.6742553230476184 L 9.932355590963134,-0.5488069427101699 L 10.355144483396913,-0.4171403604196878 L 10.660605451128012,-0.28074741116481966 L 10.84527749933603,-0.14117348156048065 L 10.907068219923561,-3.253024421291342e-16 Z" fill="none" stroke="black" stroke-width="0.05" />
<line x1="0" y1="-5" x2="0" y2="5" stroke="red" stroke-width="0.02" />
</svg>